<svg width="34" height="34" viewBox="0 0 34 34" fill="none" xmlns="http://www.w3.org/2000/svg">
<path d="M6.8063 6.13616C6.9981 6.44747 7.19981 6.75328 7.4113 7.04958C7.60372 7.31917 7.97838 7.38166 8.24804 7.18922L8.24805 7.18921C8.51768 6.99674 8.58021 6.62214 8.38774 6.35252L8.38773 6.35252C8.15453 6.0259 7.93275 5.68725 7.7253 5.34133C8.90604 4.40012 10.2277 3.63602 11.6815 3.08132C15.5257 7.98079 22.256 9.49103 27.7979 6.74888C28.5888 7.58124 29.2649 8.47563 29.8525 9.4782C24.2771 13.8273 16.4682 13.6625 11.0894 9.24217C10.8335 9.03181 10.4554 9.06874 10.2451 9.32479C10.0348 9.5807 10.0718 9.95873 10.3278 10.169C16.1029 14.915 24.4322 15.101 30.4237 10.5515C31.134 12.0257 31.6046 13.6207 31.7944 15.3183C23.0936 23.0581 9.27397 20.7383 3.71082 10.257C4.48678 8.72947 5.51206 7.34712 6.8063 6.13616ZM32.4891 31.8948H23.0944C27.6679 30.021 31.2532 26.0905 32.5632 21.094C35.2484 10.8719 27.5193 0.905493 16.9945 0.905493C8.02144 0.905493 0.719878 8.26295 0.903582 17.3319C1.03118 23.6374 4.87952 29.4345 10.8878 31.8948H1.49983C1.16857 31.8948 0.9 32.1634 0.9 32.4946C0.9 32.8259 1.16857 33.0944 1.49983 33.0944H32.4891C32.8204 33.0944 33.0889 32.8259 33.0889 32.4946C33.0889 32.1634 32.8204 31.8948 32.4891 31.8948ZM12.8984 2.6762C17.6543 1.317 22.9527 2.36945 26.8777 5.85723C21.9804 8.06155 16.2841 6.68115 12.8984 2.6762ZM2.13333 18.0043C1.98324 15.727 2.34174 13.5748 3.10149 11.6197C9.16641 21.8436 22.8121 24.1457 31.8876 16.8103C31.9041 18.1157 31.7517 19.4097 31.4365 20.6568C23.2769 30.0381 8.40676 28.5679 2.13333 18.0043ZM16.9945 31.8948C10.1538 31.8948 4.2651 27.18 2.58203 20.7639C9.50053 29.4961 22.2525 30.5398 30.5005 23.2935C28.0935 28.4647 22.861 31.8948 16.9945 31.8948Z" fill="#FA8072" stroke="#FA8072" stroke-width="0.2"/>
</svg>
