<svg width="34" height="34" viewBox="0 0 34 34" fill="none" xmlns="http://www.w3.org/2000/svg">
<path d="M25.5485 30.6445L25.5486 30.6445C25.8291 30.4683 25.9139 30.0981 25.7377 29.8175L25.653 29.8706L25.7377 29.8174C25.5617 29.537 25.1914 29.4521 24.9107 29.6283L24.9107 29.6283C22.5443 31.1135 19.8094 31.8986 17.0016 31.8986C8.78714 31.8986 2.104 25.2154 2.104 17.001C2.104 8.78659 8.78714 2.10345 17.0016 2.10345C25.216 2.10345 31.8991 8.78659 31.8991 17.001C31.8991 20.7634 30.4927 24.3551 27.9388 27.115L28.0122 27.1829L27.9388 27.115C27.5862 27.4961 27.8549 28.1227 28.3791 28.1227C28.5571 28.1227 28.7171 28.0449 28.8268 27.9219C34.589 21.6869 34.6009 11.835 28.3843 5.61833C22.0936 -0.672334 11.9105 -0.673216 5.61894 5.61833C-0.67172 11.909 -0.672602 22.0921 5.61894 28.3836C11.0702 33.8349 19.3697 34.5225 25.5485 30.6445Z" fill="#FA8072" stroke="#FA8072" stroke-width="0.2"/>
</svg>
