<svg width="34" height="34" viewBox="0 0 34 34" fill="none" xmlns="http://www.w3.org/2000/svg">
<path d="M30.7168 15.9419L30.7167 15.9419L25.7601 14.0177L27.0874 7.69731C27.1852 7.23162 26.7265 6.84272 26.2832 7.01468L26.2831 7.01469L20.6138 9.2156L17.525 3.70965L17.525 3.70964C17.2972 3.30362 16.7089 3.29923 16.4786 3.70964L16.4786 3.70965L13.3899 9.2156L7.72047 7.01469L7.72045 7.01468C7.2769 6.84263 6.81848 7.23174 6.91621 7.6973L6.91621 7.69731L8.24355 14.0177L3.28686 15.9419L3.28684 15.9419C2.92741 16.0815 2.79106 16.5196 3.0079 16.8385L6.35355 21.7585L4.98043 24.2063L5.06764 24.2553L4.98042 24.2063C4.75639 24.6058 5.04557 25.0998 5.5037 25.0998H8.62563L11.5066 29.3364C11.8745 29.8777 12.7245 29.5174 12.5897 28.8758L12.4919 28.8963L12.5897 28.8758L11.7968 25.0998H22.2069L21.414 28.8757C21.414 28.8758 21.414 28.8758 21.414 28.8758C21.2794 29.516 22.1284 29.8788 22.497 29.3364C22.497 29.3364 22.497 29.3364 22.497 29.3364L25.378 25.0998H28.4999C28.958 25.0998 29.2472 24.6059 29.0232 24.2063L29.0232 24.2063L27.6501 21.7585L30.9957 16.8385C31.2126 16.5196 31.0761 16.0815 30.7168 15.9419ZM26.8962 22.867L27.4755 23.8999H26.1939L26.8962 22.867ZM26.2403 21.6979L24.743 23.8999H23.6848L24.7173 18.9831L26.2403 21.6979ZM25.0921 17.1987L25.5102 15.2078L29.5795 16.7875L26.9941 20.5894L25.0921 17.1987ZM24.3766 14.7676L24.2 15.6084L23.5479 14.446L24.3766 14.7676ZM21.2066 10.2725L25.6857 8.53369L24.6265 13.5776L22.6248 12.8006L21.2066 10.2725ZM20.0769 10.711L20.8661 12.1178L18.6596 11.2612L20.0769 10.711ZM17.0018 10.6177L14.5196 9.65414L17.0018 5.22933L19.484 9.65414L17.0018 10.6177ZM13.9267 10.711L15.344 11.2612L13.1375 12.1178L13.9267 10.711ZM8.31792 8.53369L12.797 10.2725L11.3788 12.8006L9.37711 13.5776L8.31792 8.53369ZM9.80362 15.6085L9.62705 14.7677L10.4557 14.446L9.80362 15.6085ZM4.42416 16.7875L8.49343 15.2078L8.91155 17.1987L7.00948 20.5894L4.42416 16.7875ZM7.76322 21.6979L9.28621 18.9831L10.3187 23.8999H9.26059L7.76322 21.6979ZM7.80968 23.8999H6.528L7.10736 22.867L7.80968 23.8999ZM10.5707 25.0998L10.7916 26.1512L10.0765 25.0998H10.5707ZM11.5448 23.8999L10.1784 17.3929L12.2145 13.7633L17.0018 11.9048L21.7891 13.7633L23.8252 17.3929L22.4588 23.8999H11.5448ZM23.4329 25.0997H23.9271L23.212 26.1512L23.4329 25.0997Z" fill="#FA8072" stroke="#FA8072" stroke-width="0.2"/>
<path d="M25.5485 30.6445L25.5486 30.6445C25.8291 30.4683 25.9139 30.0981 25.7377 29.8175L25.653 29.8706L25.7377 29.8174C25.5617 29.537 25.1914 29.4521 24.9107 29.6283L24.9107 29.6283C22.5443 31.1135 19.8094 31.8986 17.0016 31.8986C8.78714 31.8986 2.104 25.2154 2.104 17.001C2.104 8.78659 8.78714 2.10345 17.0016 2.10345C25.216 2.10345 31.8991 8.78659 31.8991 17.001C31.8991 20.7634 30.4927 24.3551 27.9388 27.115L28.0122 27.1829L27.9388 27.115C27.5862 27.4961 27.8549 28.1227 28.3791 28.1227C28.5571 28.1227 28.7171 28.0449 28.8268 27.9219C34.589 21.6869 34.6009 11.835 28.3843 5.61833C22.0936 -0.672334 11.9105 -0.673216 5.61894 5.61833C-0.67172 11.909 -0.672602 22.0921 5.61894 28.3836C11.0702 33.8349 19.3697 34.5225 25.5485 30.6445Z" fill="#FA8072" stroke="#FA8072" stroke-width="0.2"/>
<path d="M26.5926 28.4007L26.5926 28.4007L27.3741 29.3111C27.3741 29.3111 27.3741 29.3111 27.3741 29.3111C27.6255 29.0952 27.6544 28.7165 27.4385 28.4651L27.4385 28.4651C27.2226 28.2138 26.8439 28.185 26.5926 28.4007Z" fill="#FA8072" stroke="#FA8072" stroke-width="0.2"/>
</svg>
