<svg width="32" height="32" viewBox="0 0 32 32" fill="none" xmlns="http://www.w3.org/2000/svg">
<g clip-path="url(#clip0)">
<path d="M5.50007 17.9002H4.10008V15.5002C4.10008 15.1688 3.83144 14.9002 3.50009 14.9002C3.16874 14.9002 2.90009 15.1688 2.90009 15.5002V17.9002H1.50011C0.617759 17.9002 -0.0998779 18.6179 -0.0998779 19.5001C-0.0998779 20.1706 0.31458 20.7453 0.900112 20.9831V29.5C0.900112 30.9338 2.06637 32.1 3.50009 32.1C4.9338 32.1 6.10006 30.9338 6.10006 29.5V20.9831C6.6856 20.7453 7.10005 20.1706 7.10005 19.5001C7.10005 18.6178 6.38241 17.9002 5.50007 17.9002ZM4.90007 29.5C4.90007 30.2719 4.27191 30.9 3.50009 30.9C2.72826 30.9 2.1001 30.2719 2.1001 29.5V21.1001H4.90007V29.5ZM5.50007 19.9001H1.50011C1.27965 19.9001 1.10011 19.7206 1.10011 19.5001C1.10011 19.2797 1.27965 19.1001 1.50011 19.1001H5.50007C5.72052 19.1001 5.90006 19.2797 5.90006 19.5001C5.90006 19.7206 5.72058 19.9001 5.50007 19.9001Z" fill="#FA8072" stroke="#FA8072" stroke-width="0.2"/>
<path d="M3.51752 12.0996C3.84652 12.1398 4.14541 11.9038 4.18469 11.575L4.18469 11.575C4.53591 8.63083 5.94894 6.04393 8.01328 4.17729C3.84551 10.3667 8.19345 19.1001 16 19.1001C23.7831 19.1001 28.1645 10.3819 23.9884 4.17956C26.441 6.4017 27.8999 9.54654 27.8999 13.0002V17.9001H26.4999C25.6176 17.9001 24.8999 18.6178 24.8999 19.5001C24.8999 20.1706 25.3144 20.7453 25.8999 20.983V29.5C25.8999 30.9337 27.0662 32.1 28.4999 32.1C29.9336 32.1 31.0999 30.9337 31.0999 29.5V20.983C31.6855 20.7453 32.0999 20.1706 32.0999 19.5001C32.0999 18.6178 31.3822 17.9001 30.4999 17.9001H29.0999V13.0002C29.0999 9.50069 27.7371 6.21065 25.2629 3.73729C17.5708 -3.95716 4.28685 0.58793 2.99311 11.4328L2.9931 11.4328C2.95389 11.7618 3.18866 12.0602 3.51752 12.0996ZM3.51752 12.0996L3.52965 12.0004M3.51752 12.0996C3.51761 12.0996 3.5177 12.0997 3.51779 12.0997L3.52965 12.0004M3.52965 12.0004C3.80339 12.0338 4.05264 11.8373 4.08539 11.5631M3.52965 12.0004C3.25546 11.9676 3.05971 11.7189 3.0924 11.4447C4.3762 0.683167 17.5588 -3.82779 25.1922 3.80801L4.08539 11.5631M4.08539 11.5631C4.45694 8.44862 6.00683 5.73061 8.25685 3.83173L4.08539 11.5631ZM21.4 6.50023C21.4 9.47766 18.9775 11.9002 16 11.9002C13.0226 11.9002 10.6001 9.47766 10.6001 6.50023C10.6001 3.52281 13.0226 1.10029 16 1.10029C18.9775 1.10029 21.4 3.52274 21.4 6.50023ZM16 17.9001C11.3684 17.9001 7.60011 14.1318 7.60011 9.50021C7.60011 7.15908 8.56311 5.0389 10.1139 3.51393C7.91739 7.79177 11.0064 13.1002 16 13.1002C20.9956 13.1002 24.0821 7.79075 21.8862 3.51398C23.4369 5.03891 24.3999 7.15913 24.3999 9.50021C24.3999 14.1318 20.6317 17.9001 16 17.9001ZM29.8999 29.5C29.8999 30.2718 29.2717 30.9 28.4999 30.9C27.7281 30.9 27.0999 30.2718 27.0999 29.5V21.1001H29.8999V29.5ZM30.4999 19.9001H26.4999C26.2795 19.9001 26.0999 19.7206 26.0999 19.5001C26.0999 19.2797 26.2795 19.1001 26.4999 19.1001H30.4999C30.7203 19.1001 30.8999 19.2797 30.8999 19.5001C30.8999 19.7206 30.7204 19.9001 30.4999 19.9001Z" fill="#FA8072" stroke="#FA8072" stroke-width="0.2"/>
<path d="M3.50012 14.1627C3.83148 14.1627 4.10012 13.894 4.10012 13.5627V13.5002C4.10012 13.1688 3.83148 12.9002 3.50012 12.9002C3.16877 12.9002 2.90012 13.1688 2.90012 13.5002V13.5627C2.90012 13.894 3.16877 14.1627 3.50012 14.1627Z" fill="#FA8072" stroke="#FA8072" stroke-width="0.2"/>
</g>
<defs>
<clipPath id="clip0">
<rect width="32" height="32" fill="white"/>
</clipPath>
</defs>
</svg>
