<svg width="30" height="32" viewBox="0 0 30 32" fill="none" xmlns="http://www.w3.org/2000/svg">
<path d="M1.51752 12.0996C1.84652 12.1398 2.14541 11.9038 2.18469 11.575L2.18469 11.575C2.53591 8.63083 3.94894 6.04393 6.01328 4.17729C1.84551 10.3667 6.19345 19.1001 14 19.1001C21.7831 19.1001 26.1645 10.3819 21.9884 4.17956C24.441 6.4017 25.8999 9.54654 25.8999 13.0002V17.9001H24.4999C23.6176 17.9001 22.8999 18.6178 22.8999 19.5001C22.8999 20.1706 23.3144 20.7453 23.8999 20.983V29.5C23.8999 30.9337 25.0662 32.1 26.4999 32.1C27.9336 32.1 29.0999 30.9337 29.0999 29.5V20.983C29.6855 20.7453 30.0999 20.1706 30.0999 19.5001C30.0999 18.6178 29.3822 17.9001 28.4999 17.9001H27.0999V13.0002C27.0999 9.50069 25.7371 6.21065 23.2629 3.73729C15.5708 -3.95716 2.28685 0.58793 0.993106 11.4328L0.993105 11.4328C0.95389 11.7618 1.18866 12.0602 1.51752 12.0996ZM1.51752 12.0996L1.52965 12.0004M1.51752 12.0996C1.51761 12.0996 1.5177 12.0997 1.51779 12.0997L1.52965 12.0004M1.52965 12.0004C1.80339 12.0338 2.05264 11.8373 2.08539 11.5631M1.52965 12.0004C1.25546 11.9676 1.05971 11.7189 1.0924 11.4447C2.3762 0.683167 15.5588 -3.82779 23.1922 3.80801L2.08539 11.5631M2.08539 11.5631C2.45694 8.44862 4.00683 5.73061 6.25685 3.83173L2.08539 11.5631ZM19.4 6.50023C19.4 9.47766 16.9775 11.9002 14 11.9002C11.0226 11.9002 8.60008 9.47766 8.60008 6.50023C8.60008 3.52281 11.0226 1.10029 14 1.10029C16.9775 1.10029 19.4 3.52274 19.4 6.50023ZM14 17.9001C9.36836 17.9001 5.60011 14.1318 5.60011 9.50021C5.60011 7.15908 6.56311 5.0389 8.11391 3.51393C5.91739 7.79177 9.00644 13.1002 14 13.1002C18.9956 13.1002 22.0821 7.79075 19.8862 3.51398C21.4369 5.03891 22.3999 7.15913 22.3999 9.50021C22.3999 14.1318 18.6317 17.9001 14 17.9001ZM27.8999 29.5C27.8999 30.2718 27.2717 30.9 26.4999 30.9C25.7281 30.9 25.0999 30.2718 25.0999 29.5V21.1001H27.8999V29.5ZM28.4999 19.9001H24.4999C24.2795 19.9001 24.0999 19.7206 24.0999 19.5001C24.0999 19.2797 24.2795 19.1001 24.4999 19.1001H28.4999C28.7203 19.1001 28.8999 19.2797 28.8999 19.5001C28.8999 19.7206 28.7204 19.9001 28.4999 19.9001Z" fill="#FA8072" stroke="#FA8072" stroke-width="0.2"/>
</svg>
