<svg width="12" height="20" viewBox="0 0 12 20" fill="none" xmlns="http://www.w3.org/2000/svg">
<path d="M11.1563 2.4C11.1563 2.5625 11.0938 2.70625 10.9688 2.83125L3.60002 10.2L10.9688 17.5688C11.0938 17.6938 11.1563 17.8375 11.1563 18C11.1563 18.1625 11.0938 18.3063 10.9688 18.4313L10.0313 19.3688C9.90627 19.4938 9.76252 19.5563 9.60003 19.5563C9.43752 19.5563 9.29377 19.4938 9.16877 19.3688L0.431274 10.6313C0.306274 10.5063 0.243774 10.3625 0.243774 10.2C0.243774 10.0375 0.306274 9.89375 0.431274 9.76875L9.16877 1.03125C9.29377 0.90625 9.43752 0.84375 9.60003 0.84375C9.76252 0.84375 9.90627 0.90625 10.0313 1.03125L10.9688 1.96875C11.0938 2.09375 11.1563 2.2375 11.1563 2.4Z" fill="#FFDAB9"/>
</svg>
