<svg width="12" height="20" viewBox="0 0 12 20" fill="none" xmlns="http://www.w3.org/2000/svg">
<path d="M0.643774 2.4C0.643774 2.5625 0.706274 2.70625 0.831274 2.83125L8.20002 10.2L0.831274 17.5688C0.706274 17.6938 0.643774 17.8375 0.643774 18C0.643774 18.1625 0.706274 18.3063 0.831274 18.4313L1.76877 19.3688C1.89377 19.4938 2.03752 19.5563 2.20002 19.5563C2.36252 19.5563 2.50627 19.4938 2.63127 19.3688L11.3688 10.6313C11.4938 10.5063 11.5563 10.3625 11.5563 10.2C11.5563 10.0375 11.4938 9.89375 11.3688 9.76875L2.63127 1.03125C2.50627 0.90625 2.36252 0.84375 2.20002 0.84375C2.03752 0.84375 1.89377 0.90625 1.76877 1.03125L0.831274 1.96875C0.706274 2.09375 0.643774 2.2375 0.643774 2.4Z" fill="#FFDAB9"/>
</svg>
