

<svg width="91" height="24" viewBox="0 0 91 24" xmlns="http://www.w3.org/2000/svg">
<g clip-path="url(#clip0)" class="drawing">
<path id="fff" d="M54.8875 7.42497C54.4687 8.03747 53.9625 8.55934 53.3687 8.99059C53.375 9.07809 53.3781 9.20934 53.3781 9.38434C53.3781 10.1968 53.2594 11.0078 53.0219 11.8172C52.7844 12.6265 52.4234 13.4031 51.939 14.1468C51.4547 14.8906 50.8781 15.5484 50.2094 16.1203C49.5406 16.6922 48.7344 17.1484 47.7906 17.489C46.8469 17.8297 45.8375 18 44.7625 18C43.0687 18 41.5187 17.5468 40.1125 16.6406C40.3312 16.6656 40.575 16.6781 40.8437 16.6781C42.25 16.6781 43.5031 16.2468 44.6031 15.3843C43.9469 15.3718 43.3594 15.1703 42.8406 14.7797C42.3219 14.389 41.9656 13.8906 41.7719 13.2843C41.9781 13.3156 42.1687 13.3312 42.3437 13.3312C42.6125 13.3312 42.8781 13.2968 43.1406 13.2281C42.4406 13.0843 41.8609 12.7359 41.4016 12.1828C40.9422 11.6297 40.7125 10.9875 40.7125 10.2562V10.2187C41.1375 10.4562 41.5937 10.5843 42.0812 10.6031C41.6687 10.3281 41.3406 9.96872 41.0969 9.52497C40.8531 9.08122 40.7312 8.59997 40.7312 8.08122C40.7312 7.53122 40.8687 7.02184 41.1437 6.55309C41.9 7.48434 42.8203 8.22966 43.9047 8.78903C44.989 9.34841 46.15 9.65934 47.3875 9.72184C47.3375 9.48434 47.3125 9.25309 47.3125 9.02809C47.3125 8.19059 47.6078 7.47653 48.1984 6.88591C48.7891 6.29528 49.5031 5.99997 50.3406 5.99997C51.2156 5.99997 51.9531 6.31872 52.5531 6.95622C53.2344 6.82497 53.875 6.58122 54.475 6.22497C54.2437 6.94372 53.8 7.49997 53.1437 7.89372C53.725 7.83122 54.3062 7.67497 54.8875 7.42497Z"/>
</g>
<g clip-path="url(#clip1)">
<path d="M80.7846 9.96599V17.8729H78.1516V9.96599H80.7846ZM80.9521 7.5245C80.9574 7.9128 80.8231 8.23727 80.5492 8.49791C80.2753 8.75854 79.9149 8.88886 79.4681 8.88886H79.4521C79.016 8.88886 78.6649 8.75854 78.3989 8.49791C78.133 8.23727 78 7.9128 78 7.5245C78 7.13089 78.137 6.80509 78.4109 6.54711C78.6848 6.28913 79.0426 6.16014 79.484 6.16014C79.9255 6.16014 80.2793 6.28913 80.5452 6.54711C80.8112 6.80509 80.9468 7.13089 80.9521 7.5245ZM90.2553 13.341V17.8729H87.6303V13.6442C87.6303 13.0857 87.5226 12.6482 87.3072 12.3317C87.0918 12.0152 86.7553 11.8569 86.2979 11.8569C85.9628 11.8569 85.6822 11.9487 85.4561 12.1322C85.2301 12.3157 85.0612 12.5431 84.9495 12.8144C84.891 12.974 84.8617 13.1894 84.8617 13.4607V17.8729H82.2367C82.2473 15.7506 82.2527 14.0298 82.2527 12.7107C82.2527 11.3915 82.25 10.6043 82.2447 10.349L82.2367 9.96599H84.8617V11.1149H84.8457C84.9521 10.9447 85.0612 10.7958 85.1729 10.6681C85.2846 10.5405 85.4348 10.4022 85.6237 10.2532C85.8125 10.1043 86.0439 9.9886 86.3178 9.90615C86.5918 9.8237 86.8963 9.78248 87.2314 9.78248C88.141 9.78248 88.8723 10.0843 89.4255 10.6881C89.9787 11.2918 90.2553 12.1761 90.2553 13.341Z"/>
</g>
<rect width="24" height="24" rx="12" fill-opacity="0.2"/>
<g clip-path="url(#clip2)">
<path d="M15.4543 6.08651V7.99035H14.3221C13.9087 7.99035 13.6298 8.07689 13.4856 8.24997C13.3414 8.42305 13.2692 8.68266 13.2692 9.02882V10.3918H15.3822L15.101 12.5264H13.2692V18H11.0625V12.5264H9.22357V10.3918H11.0625V8.81968C11.0625 7.92545 11.3125 7.23194 11.8125 6.73915C12.3125 6.24636 12.9784 5.99997 13.8101 5.99997C14.5168 5.99997 15.0649 6.02882 15.4543 6.08651Z"/>
</g>
</svg>
